<svg id="Layer_2" data-name="Layer 2" xmlns="http://www.w3.org/2000/svg" xmlns:xlink="http://www.w3.org/1999/xlink" viewBox="0 0 102.03 99.24"><defs><style>.cls-1{fill:url(#linear-gradient);}.cls-2{fill:url(#linear-gradient-2);}.cls-3{fill:url(#linear-gradient-3);}.cls-4{fill:url(#linear-gradient-4);}.cls-5{fill:url(#linear-gradient-5);}.cls-6{fill:url(#linear-gradient-6);}.cls-7{fill:url(#linear-gradient-7);}.cls-8{fill:url(#linear-gradient-8);}.cls-9{fill:url(#linear-gradient-9);}.cls-10{fill:url(#linear-gradient-10);}.cls-11{fill:url(#linear-gradient-11);}</style><linearGradient id="linear-gradient" x1="0.4" y1="78.86" x2="101.56" y2="78.86" gradientUnits="userSpaceOnUse"><stop offset="0" stop-color="#e23434"/><stop offset="1" stop-color="#933a3a"/></linearGradient><linearGradient id="linear-gradient-2" x1="15.65" y1="14.66" x2="100.06" y2="14.66" xlink:href="#linear-gradient"/><linearGradient id="linear-gradient-3" x1="15.65" y1="30.75" x2="33.58" y2="30.75" xlink:href="#linear-gradient"/><linearGradient id="linear-gradient-4" x1="36.6" y1="27.32" x2="44.77" y2="27.32" xlink:href="#linear-gradient"/><linearGradient id="linear-gradient-5" x1="50.13" y1="24.42" x2="58.68" y2="24.42" xlink:href="#linear-gradient"/><linearGradient id="linear-gradient-6" x1="62.77" y1="18.46" x2="102.43" y2="18.46" xlink:href="#linear-gradient"/><linearGradient id="linear-gradient-7" x1="36.43" y1="45.08" x2="57.76" y2="45.08" xlink:href="#linear-gradient"/><linearGradient id="linear-gradient-8" x1="22.01" y1="46.31" x2="43.34" y2="46.31" xlink:href="#linear-gradient"/><linearGradient id="linear-gradient-9" x1="49.82" y1="43.6" x2="70.81" y2="43.6" xlink:href="#linear-gradient"/><linearGradient id="linear-gradient-10" x1="62.53" y1="41.83" x2="83.86" y2="41.83" xlink:href="#linear-gradient"/><linearGradient id="linear-gradient-11" x1="0.4" y1="65.08" x2="101.56" y2="65.08" xlink:href="#linear-gradient"/></defs><title>mie-logo-mini</title><path class="cls-1" d="M100.8,59A6.91,6.91,0,0,0,97.63,56a1.4,1.4,0,0,0-2,.9,1.42,1.42,0,0,0,.22,1,2.15,2.15,0,0,1,.29.53v0a1.61,1.61,0,0,1,.09.29.09.09,0,0,1,0,0,1.32,1.32,0,0,1,0,.34,2.09,2.09,0,0,1-.39,1.15l0,0a4.32,4.32,0,0,1-.39.51,2.45,2.45,0,0,1,.87,2.45c-.23,1-.5,2.15-.84,3.32-.09.33-.19.67-.3,1a43.83,43.83,0,0,1-7.91,15.08c-8,9.7-20.15,14.64-36.13,14.69H51c-15.9,0-28-4.93-35.93-14.63A44.76,44.76,0,0,1,7.15,67.61c-.1-.34-.2-.67-.29-1-.33-1.18-.6-2.29-.82-3.32a2.46,2.46,0,0,1,.86-2.44,4.24,4.24,0,0,1-.39-.5l0,0a2.09,2.09,0,0,1-.39-1.15,1.32,1.32,0,0,1,0-.34.09.09,0,0,1,0,0,1.61,1.61,0,0,1,.09-.29v0a2.15,2.15,0,0,1,.29-.53c.74-1.12-.31-2.48-1.85-2.61H4.61a4.27,4.27,0,0,0-2,.61s0,0,0,0A4.43,4.43,0,0,0,.44,60.35c.09.6.19,1.25.31,1.93C3.06,75.39,12.49,102.4,51,102.4h.23c37.43-.11,47.52-25.38,50.23-38.86a5.66,5.66,0,0,0,.12-1.07A6.65,6.65,0,0,0,100.8,59Z" transform="translate(-0.4 -3.16)"/><path class="cls-2" d="M97.81,8.06,67.7,15l-5.15,1.18h0L54.9,17.94,49.83,19.1,41.66,21l-5.19,1.2-9.35,2.15L22.2,25.46l-2.6.6a3.61,3.61,0,0,1-.86.1,3.07,3.07,0,0,1-3-1.82c-.47-1.32.48-2.71,2.13-3.09l4.38-1L27.82,19l9.8-2.26,5.46-1.25,7.58-1.75,5.78-1.33,7-1.62,5.74-1.32,26.9-6.19A3.27,3.27,0,0,1,99.94,5C100.41,6.3,99.46,7.68,97.81,8.06Z" transform="translate(-0.4 -3.16)"/><path class="cls-3" d="M29.54,28.29a36.77,36.77,0,0,0,4,3.09l-7.24,1.54L19.86,34.3a4.38,4.38,0,0,1-.88.09,3.3,3.3,0,0,1-3.21-1.9c-.49-1.38.55-2.8,2.33-3.18l4.92-1,5.42-1.15A11.94,11.94,0,0,0,29.54,28.29Z" transform="translate(-0.4 -3.16)"/><path class="cls-4" d="M44,28.29c.25.23.52.47.81.71l-6.21,1.32a12.29,12.29,0,0,1-2-5l4.93-1A7.24,7.24,0,0,0,44,28.29Z" transform="translate(-0.4 -3.16)"/><path class="cls-5" d="M58.68,26l-6.44,1.38a14.65,14.65,0,0,1-.89-1.49,13,13,0,0,1-1.22-3.43l5-1.06a7.4,7.4,0,0,0,1.62,2.75A18.47,18.47,0,0,0,58.68,26Z" transform="translate(-0.4 -3.16)"/><path class="cls-6" d="M100,17.24,71,23.42l-6.31,1.34a13.6,13.6,0,0,1-1.59-3.68c-.08-.28-.15-.56-.21-.86,0-.14-.06-.28-.08-.42l5-1.06,30.47-6.49c1.78-.38,3.61.43,4.09,1.81S101.76,16.86,100,17.24Z" transform="translate(-0.4 -3.16)"/><path class="cls-7" d="M57.76,46.42a27.31,27.31,0,0,1-1.29,8.22A39.7,39.7,0,0,1,54,60.71a58.36,58.36,0,0,1-5.67,9.1h0c-.31.43-.62.83-.93,1.22-1.24,1.58-2.34,2.83-3.1,3.67h0c-1.7-.06-3.38-.15-5-.27A3.44,3.44,0,0,1,40,71.17s.55-.56,1.38-1.48l.1-.12h0A62.09,62.09,0,0,0,48,60.71a40,40,0,0,0,3-6.07,22.12,22.12,0,0,0,1.68-7.83c0-.39,0-.78,0-1.16a7.55,7.55,0,0,0-2-4.7,27.1,27.1,0,0,0-5.22-4.28c-2.37-1.65-5.14-3.57-7-6.35a12.29,12.29,0,0,1-2-5,13.8,13.8,0,0,1-.13-3.19,21,21,0,0,1,1.15-5.47l5.46-1.25a3.54,3.54,0,0,1-.23,1.92c-.19.46-.36.9-.51,1.31A17.78,17.78,0,0,0,41.66,21a10.79,10.79,0,0,0-.22,1.59,7.1,7.1,0,0,0,.09,1.75,7.24,7.24,0,0,0,2.43,4c.25.23.52.47.81.71.92.75,2,1.54,3.26,2.4,3.11,2.16,6.79,4.71,8.6,9a14.35,14.35,0,0,1,1.09,4.77C57.75,45.6,57.76,46,57.76,46.42Z" transform="translate(-0.4 -3.16)"/><path class="cls-8" d="M43.34,46.42A27.31,27.31,0,0,1,42,54.64a39.7,39.7,0,0,1-2.45,6.07A56.69,56.69,0,0,1,34.52,69c-.52.72-1,1.4-1.53,2-.8,1-1.54,1.9-2.16,2.62-1.35-.17-2.69-.35-4-.55l-2.05-.33a3,3,0,0,1,.82-1.6s.55-.56,1.38-1.48c.37-.42.81-.92,1.28-1.5a60.4,60.4,0,0,0,5.36-7.48,40,40,0,0,0,3-6.07,22.12,22.12,0,0,0,1.68-7.83c0-.39,0-.78,0-1.16a7.55,7.55,0,0,0-2-4.7,27.1,27.1,0,0,0-5.22-4.28,37,37,0,0,1-4.79-3.75A14,14,0,0,1,23,28.26a12.16,12.16,0,0,1-.82-2.8,15.36,15.36,0,0,1,.08-5.22L27.82,19a13.29,13.29,0,0,0-.8,3.6,6.74,6.74,0,0,0,.1,1.76,6.28,6.28,0,0,0,1.32,2.78,11.94,11.94,0,0,0,1.1,1.18,36.77,36.77,0,0,0,4,3.09l0,0c3.11,2.16,6.79,4.71,8.6,9a14.35,14.35,0,0,1,1.09,4.77C43.33,45.6,43.34,46,43.34,46.42Z" transform="translate(-0.4 -3.16)"/><path class="cls-9" d="M70.67,46.69a34.83,34.83,0,0,1-1.86,8c-.19.53-.38,1-.59,1.57s-.38,1-.59,1.44c-.28.64-.57,1.27-.87,1.88-.18.38-.37.75-.56,1.13a.11.11,0,0,1,0,.05,65.35,65.35,0,0,1-5.53,8.87c-.75,1-1.45,1.92-2,2.65-1.12,1.38-1.89,2.21-2,2.35l-.18.18-2.79.06a2.55,2.55,0,0,1-.56-.61,3.82,3.82,0,0,1-.56-2.45,3.65,3.65,0,0,1,.77-1.94l.09-.1a63.5,63.5,0,0,0,6.7-9,48.27,48.27,0,0,0,3.21-6.07,29.23,29.23,0,0,0,2.4-8.26A18,18,0,0,0,65.78,43a8.23,8.23,0,0,0-.58-2.66c-1-2.54-3.25-4.39-6.45-6.75a26.91,26.91,0,0,1-6.51-6.13,14.65,14.65,0,0,1-.89-1.49,13,13,0,0,1-1.22-3.43,14.26,14.26,0,0,1-.3-2.61q0-.37,0-.78A17.76,17.76,0,0,1,50.15,16c.13-.72.29-1.48.51-2.27l5.78-1.33a3.4,3.4,0,0,1-.23.94c-.09.22-.17.44-.24.65a18.58,18.58,0,0,0-1.07,4c0,.11,0,.22,0,.33a7.67,7.67,0,0,0,.25,3.16,7.4,7.4,0,0,0,1.62,2.75,18.47,18.47,0,0,0,2,1.85c.76.64,1.63,1.29,2.59,2,3.69,2.74,8.2,6.08,9.29,12.55a18.21,18.21,0,0,1,.21,1.89A26.92,26.92,0,0,1,70.67,46.69Z" transform="translate(-0.4 -3.16)"/><path class="cls-10" d="M83.86,42.16a28.89,28.89,0,0,1-.58,6.24,39.07,39.07,0,0,1-1.61,5.82,51.76,51.76,0,0,1-2.7,6.2,69.31,69.31,0,0,1-4.65,7.74c-.67,1-1.31,1.84-1.89,2.61l-.76,1c-.7.89-1.28,1.6-1.69,2.08h0c-1.34.15-2.71.29-4.09.4a.76.76,0,0,1-.08-.11,3.94,3.94,0,0,1-.56-1.93v-.35h0a3.86,3.86,0,0,1,.89-2.4l.27-.3a69.35,69.35,0,0,0,6.35-8.72c.15-.25.3-.49.44-.74s.22-.37.32-.55A49.19,49.19,0,0,0,76,54.22a34.13,34.13,0,0,0,2.32-7,21.51,21.51,0,0,0,.48-5.68,4.93,4.93,0,0,0-.06-.54c-.42-3.92-3-6.15-7.13-9.27-2.39-1.81-5.16-3.92-7-7a13.6,13.6,0,0,1-1.59-3.68c-.08-.28-.15-.56-.21-.86,0-.14-.06-.28-.08-.42a16.13,16.13,0,0,1-.22-3.62h0c0-.52.07-1,.14-1.61,0-.28.07-.56.13-.85a26.89,26.89,0,0,1,.65-3l5.74-1.32A3.63,3.63,0,0,1,69,10.65c-.17.42-.32.84-.45,1.24s-.19.58-.27.86A19,19,0,0,0,67.7,15a9.11,9.11,0,0,0,0,3.66.29.29,0,0,1,0,.09c.07.25.14.49.23.73v0a10.2,10.2,0,0,0,3,3.93c.9.81,2,1.64,3.18,2.56,4.11,3.11,9.23,7,9.69,15.06C83.85,41.42,83.86,41.8,83.86,42.16Z" transform="translate(-0.4 -3.16)"/><path class="cls-11" d="M100.8,59A6.91,6.91,0,0,0,97.63,56a1.4,1.4,0,0,0-2,.9,1.42,1.42,0,0,0,.22,1,2.15,2.15,0,0,1,.29.53v0a1.61,1.61,0,0,1,.09.29.09.09,0,0,1,0,0,1.32,1.32,0,0,1,0,.34,2.09,2.09,0,0,1-.39,1.15l0,0a4.32,4.32,0,0,1-.39.51c-2.36,2.62-9.86,5.54-21.18,7.31q-1.39.23-2.88.42c-1.22.16-2.47.31-3.77.44l-.6.06-.66.06c-1.18.12-2.39.23-3.65.31h-.23c-.62,0-1.24.09-1.87.12h0l-.29,0c-1.79.1-3.66.16-5.56.2H53.25l-2,0q-1.46,0-2.85,0h0l-.77,0h-1c-1.64,0-3.25-.11-4.81-.19l-.23,0h-.07l-1.78-.12-.68,0c-1.37-.1-2.71-.22-4-.35l-.47,0h0l-1.78-.2-1-.13c-1.17-.14-2.31-.3-3.4-.48s-2-.33-3-.5C15.51,65.9,9,63.25,6.9,60.85a4.24,4.24,0,0,1-.39-.5l0,0a2.09,2.09,0,0,1-.39-1.15,1.32,1.32,0,0,1,0-.34.09.09,0,0,1,0,0,1.61,1.61,0,0,1,.09-.29v0a2.15,2.15,0,0,1,.29-.53c.74-1.12-.31-2.48-1.85-2.61H4.61a4.27,4.27,0,0,0-2,.61s0,0,0,0A4.43,4.43,0,0,0,.44,60.35c.09.6.19,1.25.31,1.93a12.49,12.49,0,0,0,4.6,4.33c.56.34,1.16.67,1.8,1a62.21,62.21,0,0,0,16.07,4.88h0l1.56.28,2.05.33c1.3.2,2.64.38,4,.55,2.73.33,5.55.6,8.42.78,1.67.12,3.35.21,5,.27h0q3.43.13,6.89.14l2.4,0,2.79-.06c3.2-.09,6.39-.27,9.49-.53,1.38-.11,2.75-.25,4.09-.4h0c10.22-1.13,19.29-3.21,25.25-6.2.64-.33,1.24-.67,1.81-1a12.82,12.82,0,0,0,4.51-4.15A6.65,6.65,0,0,0,100.8,59Z" transform="translate(-0.4 -3.16)"/></svg>