<svg id="Layer_2" data-name="Layer 2" xmlns="http://www.w3.org/2000/svg" xmlns:xlink="http://www.w3.org/1999/xlink" viewBox="0 0 633 99.24"><defs><style>.cls-1{fill:url(#linear-gradient);}.cls-2{fill:url(#linear-gradient-2);}.cls-3{fill:url(#linear-gradient-3);}.cls-4{fill:url(#linear-gradient-4);}.cls-5{fill:url(#linear-gradient-5);}.cls-6{fill:url(#linear-gradient-6);}.cls-7{fill:url(#linear-gradient-7);}.cls-8{fill:url(#linear-gradient-8);}.cls-9{fill:url(#linear-gradient-9);}.cls-10{fill:url(#linear-gradient-10);}.cls-11{fill:url(#linear-gradient-11);}.cls-12{fill:url(#linear-gradient-12);}.cls-13{fill:url(#linear-gradient-13);}.cls-14{fill:url(#linear-gradient-14);}.cls-15{fill:url(#linear-gradient-15);}.cls-16{fill:url(#linear-gradient-16);}.cls-17{fill:url(#linear-gradient-17);}.cls-18{fill:url(#linear-gradient-18);}.cls-19{fill:url(#linear-gradient-19);}</style><linearGradient id="linear-gradient" x1="0.18" y1="96.86" x2="101.34" y2="96.86" gradientUnits="userSpaceOnUse"><stop offset="0" stop-color="#e23434"/><stop offset="1" stop-color="#933a3a"/></linearGradient><linearGradient id="linear-gradient-2" x1="15.44" y1="32.66" x2="99.85" y2="32.66" xlink:href="#linear-gradient"/><linearGradient id="linear-gradient-3" x1="15.44" y1="48.75" x2="33.37" y2="48.75" xlink:href="#linear-gradient"/><linearGradient id="linear-gradient-4" x1="36.39" y1="45.32" x2="44.56" y2="45.32" xlink:href="#linear-gradient"/><linearGradient id="linear-gradient-5" x1="49.92" y1="42.42" x2="58.47" y2="42.42" xlink:href="#linear-gradient"/><linearGradient id="linear-gradient-6" x1="62.56" y1="36.46" x2="102.22" y2="36.46" xlink:href="#linear-gradient"/><linearGradient id="linear-gradient-7" x1="36.22" y1="63.08" x2="57.55" y2="63.08" xlink:href="#linear-gradient"/><linearGradient id="linear-gradient-8" x1="21.8" y1="64.31" x2="43.13" y2="64.31" xlink:href="#linear-gradient"/><linearGradient id="linear-gradient-9" x1="49.61" y1="61.6" x2="70.6" y2="61.6" xlink:href="#linear-gradient"/><linearGradient id="linear-gradient-10" x1="62.32" y1="59.83" x2="83.65" y2="59.83" xlink:href="#linear-gradient"/><linearGradient id="linear-gradient-11" x1="0.18" y1="83.08" x2="101.34" y2="83.08" xlink:href="#linear-gradient"/><linearGradient id="linear-gradient-12" x1="136.27" y1="64.68" x2="229.56" y2="64.68" xlink:href="#linear-gradient"/><linearGradient id="linear-gradient-13" x1="234.21" y1="71.25" x2="288.98" y2="71.25" xlink:href="#linear-gradient"/><linearGradient id="linear-gradient-14" x1="299.2" y1="71.02" x2="333.61" y2="71.02" xlink:href="#linear-gradient"/><linearGradient id="linear-gradient-15" x1="340" y1="71.02" x2="427.63" y2="71.02" xlink:href="#linear-gradient"/><linearGradient id="linear-gradient-16" x1="435.93" y1="59.66" x2="456.84" y2="59.66" xlink:href="#linear-gradient"/><linearGradient id="linear-gradient-17" x1="462.59" y1="71.25" x2="514.43" y2="71.25" xlink:href="#linear-gradient"/><linearGradient id="linear-gradient-18" x1="521.74" y1="63.08" x2="575.59" y2="63.08" xlink:href="#linear-gradient"/><linearGradient id="linear-gradient-19" x1="580.43" y1="71.48" x2="633.19" y2="71.48" xlink:href="#linear-gradient"/></defs><title>mie-logo</title><path class="cls-1" d="M100.59,77A6.91,6.91,0,0,0,97.42,74a1.4,1.4,0,0,0-2,.9,1.42,1.42,0,0,0,.22,1,2.15,2.15,0,0,1,.29.53v0a1.61,1.61,0,0,1,.09.29.09.09,0,0,1,0,0,1.32,1.32,0,0,1,0,.34,2.09,2.09,0,0,1-.39,1.15l0,0a4.32,4.32,0,0,1-.39.51,2.45,2.45,0,0,1,.87,2.45c-.23,1-.5,2.15-.84,3.32-.09.33-.19.67-.3,1a43.83,43.83,0,0,1-7.91,15.08c-8,9.7-20.15,14.64-36.13,14.69h-.22c-15.9,0-28-4.93-35.93-14.63A44.76,44.76,0,0,1,6.94,85.61c-.1-.34-.2-.67-.29-1-.33-1.18-.6-2.29-.82-3.32a2.46,2.46,0,0,1,.86-2.44,4.24,4.24,0,0,1-.39-.5l0,0a2.09,2.09,0,0,1-.39-1.15,1.32,1.32,0,0,1,0-.34.09.09,0,0,1,0,0A1.61,1.61,0,0,1,6,76.47v0a2.15,2.15,0,0,1,.29-.53c.74-1.12-.31-2.48-1.85-2.61H4.4a4.27,4.27,0,0,0-2,.61s0,0,0,0A4.43,4.43,0,0,0,.23,78.35c.09.6.19,1.25.31,1.93C2.85,93.39,12.28,120.4,50.76,120.4H51c37.43-.11,47.52-25.38,50.23-38.86a5.66,5.66,0,0,0,.12-1.07A6.65,6.65,0,0,0,100.59,77Z" transform="translate(-0.18 -21.16)"/><path class="cls-2" d="M97.6,26.06,67.49,33l-5.15,1.18h0l-7.65,1.76L49.62,37.1,41.45,39l-5.19,1.2-9.35,2.15L22,43.46l-2.6.6a3.61,3.61,0,0,1-.86.1,3.07,3.07,0,0,1-3-1.82c-.47-1.32.48-2.71,2.13-3.09l4.38-1L27.61,37l9.8-2.26,5.46-1.25,7.58-1.75,5.78-1.33,7-1.62L69,27.44l26.9-6.19A3.27,3.27,0,0,1,99.73,23C100.2,24.3,99.25,25.68,97.6,26.06Z" transform="translate(-0.18 -21.16)"/><path class="cls-3" d="M29.33,46.29a36.77,36.77,0,0,0,4,3.09l-7.24,1.54L19.65,52.3a4.38,4.38,0,0,1-.88.09,3.3,3.3,0,0,1-3.21-1.9c-.49-1.38.55-2.8,2.33-3.18l4.92-1,5.42-1.15A11.94,11.94,0,0,0,29.33,46.29Z" transform="translate(-0.18 -21.16)"/><path class="cls-4" d="M43.75,46.29c.25.23.52.47.81.71l-6.21,1.32a12.29,12.29,0,0,1-2-5l4.93-1A7.24,7.24,0,0,0,43.75,46.29Z" transform="translate(-0.18 -21.16)"/><path class="cls-5" d="M58.47,44,52,45.41a14.65,14.65,0,0,1-.89-1.49,13,13,0,0,1-1.22-3.43l5-1.06a7.4,7.4,0,0,0,1.62,2.75A18.47,18.47,0,0,0,58.47,44Z" transform="translate(-0.18 -21.16)"/><path class="cls-6" d="M99.77,35.24l-29,6.18-6.31,1.34a13.6,13.6,0,0,1-1.59-3.68c-.08-.28-.15-.56-.21-.86,0-.14-.06-.28-.08-.42l5-1.06L98,30.25c1.78-.38,3.61.43,4.09,1.81S101.55,34.86,99.77,35.24Z" transform="translate(-0.18 -21.16)"/><path class="cls-7" d="M57.55,64.42a27.31,27.31,0,0,1-1.29,8.22,39.7,39.7,0,0,1-2.45,6.07,58.36,58.36,0,0,1-5.67,9.1h0c-.31.43-.62.83-.93,1.22-1.24,1.58-2.34,2.83-3.1,3.67h0c-1.7-.06-3.38-.15-5-.27a3.44,3.44,0,0,1,.78-3.26s.55-.56,1.38-1.48l.1-.12h0a62.09,62.09,0,0,0,6.53-8.86,40,40,0,0,0,3-6.07,22.12,22.12,0,0,0,1.68-7.83c0-.39,0-.78,0-1.16a7.55,7.55,0,0,0-2-4.7,27.1,27.1,0,0,0-5.22-4.28C43,53,40.2,51.1,38.35,48.32a12.29,12.29,0,0,1-2-5,13.8,13.8,0,0,1-.13-3.19,21,21,0,0,1,1.15-5.47l5.46-1.25a3.54,3.54,0,0,1-.23,1.92c-.19.46-.36.9-.51,1.31A17.78,17.78,0,0,0,41.45,39a10.79,10.79,0,0,0-.22,1.59,7.1,7.1,0,0,0,.09,1.75,7.24,7.24,0,0,0,2.43,4c.25.23.52.47.81.71.92.75,2,1.54,3.26,2.4,3.11,2.16,6.79,4.71,8.6,9a14.35,14.35,0,0,1,1.09,4.77C57.54,63.6,57.55,64,57.55,64.42Z" transform="translate(-0.18 -21.16)"/><path class="cls-8" d="M43.13,64.42a27.31,27.31,0,0,1-1.29,8.22,39.7,39.7,0,0,1-2.45,6.07A56.69,56.69,0,0,1,34.31,87c-.52.72-1,1.4-1.53,2-.8,1-1.54,1.9-2.16,2.62-1.35-.17-2.69-.35-4-.55l-2.05-.33a3,3,0,0,1,.82-1.6s.55-.56,1.38-1.48c.37-.42.81-.92,1.28-1.5a60.4,60.4,0,0,0,5.36-7.48,40,40,0,0,0,3-6.07,22.12,22.12,0,0,0,1.68-7.83c0-.39,0-.78,0-1.16a7.55,7.55,0,0,0-2-4.7,27.1,27.1,0,0,0-5.22-4.28,37,37,0,0,1-4.79-3.75,14,14,0,0,1-3.32-4.66,12.16,12.16,0,0,1-.82-2.8,15.36,15.36,0,0,1,.08-5.22L27.61,37a13.29,13.29,0,0,0-.8,3.6,6.74,6.74,0,0,0,.1,1.76,6.28,6.28,0,0,0,1.32,2.78,11.94,11.94,0,0,0,1.1,1.18,36.77,36.77,0,0,0,4,3.09l0,0c3.11,2.16,6.79,4.71,8.6,9a14.35,14.35,0,0,1,1.09,4.77C43.12,63.6,43.13,64,43.13,64.42Z" transform="translate(-0.18 -21.16)"/><path class="cls-9" d="M70.46,64.69a34.83,34.83,0,0,1-1.86,8c-.19.53-.38,1-.59,1.57s-.38,1-.59,1.44c-.28.64-.57,1.27-.87,1.88-.18.38-.37.75-.56,1.13a.11.11,0,0,1,0,.05,65.35,65.35,0,0,1-5.53,8.87c-.75,1-1.45,1.92-2,2.65-1.12,1.38-1.89,2.21-2,2.35l-.18.18-2.79.06a2.55,2.55,0,0,1-.56-.61,3.82,3.82,0,0,1-.56-2.45A3.65,3.65,0,0,1,53,87.82l.09-.1a63.5,63.5,0,0,0,6.7-9A48.27,48.27,0,0,0,63,72.64a29.23,29.23,0,0,0,2.4-8.26A18,18,0,0,0,65.57,61,8.23,8.23,0,0,0,65,58.29c-1-2.54-3.25-4.39-6.45-6.75A26.91,26.91,0,0,1,52,45.41a14.65,14.65,0,0,1-.89-1.49,13,13,0,0,1-1.22-3.43,14.26,14.26,0,0,1-.3-2.61q0-.37,0-.78A17.76,17.76,0,0,1,49.94,34c.13-.72.29-1.48.51-2.27l5.78-1.33a3.4,3.4,0,0,1-.23.94c-.09.22-.17.44-.24.65a18.58,18.58,0,0,0-1.07,4c0,.11,0,.22,0,.33a7.67,7.67,0,0,0,.25,3.16,7.4,7.4,0,0,0,1.62,2.75,18.47,18.47,0,0,0,2,1.85c.76.64,1.63,1.29,2.59,2,3.69,2.74,8.2,6.08,9.29,12.55a18.21,18.21,0,0,1,.21,1.89A26.92,26.92,0,0,1,70.46,64.69Z" transform="translate(-0.18 -21.16)"/><path class="cls-10" d="M83.65,60.16a28.89,28.89,0,0,1-.58,6.24,39.07,39.07,0,0,1-1.61,5.82,51.76,51.76,0,0,1-2.7,6.2,69.31,69.31,0,0,1-4.65,7.74c-.67,1-1.31,1.84-1.89,2.61l-.76,1c-.7.89-1.28,1.6-1.69,2.08h0c-1.34.15-2.71.29-4.09.4a.76.76,0,0,1-.08-.11A3.94,3.94,0,0,1,65,90.19v-.35h0a3.86,3.86,0,0,1,.89-2.4l.27-.3a69.35,69.35,0,0,0,6.35-8.72c.15-.25.3-.49.44-.74s.22-.37.32-.55a49.19,49.19,0,0,0,2.53-4.91,34.13,34.13,0,0,0,2.32-7,21.51,21.51,0,0,0,.48-5.68,4.93,4.93,0,0,0-.06-.54c-.42-3.92-3-6.15-7.13-9.27-2.39-1.81-5.16-3.92-7-7a13.6,13.6,0,0,1-1.59-3.68c-.08-.28-.15-.56-.21-.86,0-.14-.06-.28-.08-.42a16.13,16.13,0,0,1-.22-3.62h0c0-.52.07-1,.14-1.61,0-.28.07-.56.13-.85a26.89,26.89,0,0,1,.65-3L69,27.44a3.63,3.63,0,0,1-.25,1.21c-.17.42-.32.84-.45,1.24s-.19.58-.27.86A19,19,0,0,0,67.49,33a9.11,9.11,0,0,0,0,3.66.29.29,0,0,1,0,.09c.07.25.14.49.23.73v0a10.2,10.2,0,0,0,3,3.93c.9.81,2,1.64,3.18,2.56C78,47.09,83.16,51,83.62,59,83.64,59.42,83.65,59.8,83.65,60.16Z" transform="translate(-0.18 -21.16)"/><path class="cls-11" d="M100.59,77A6.91,6.91,0,0,0,97.42,74a1.4,1.4,0,0,0-2,.9,1.42,1.42,0,0,0,.22,1,2.15,2.15,0,0,1,.29.53v0a1.61,1.61,0,0,1,.09.29.09.09,0,0,1,0,0,1.32,1.32,0,0,1,0,.34,2.09,2.09,0,0,1-.39,1.15l0,0a4.32,4.32,0,0,1-.39.51c-2.36,2.62-9.86,5.54-21.18,7.31q-1.39.23-2.88.42c-1.22.16-2.47.31-3.77.44l-.6.06-.66.06c-1.18.12-2.39.23-3.65.31h-.23c-.62,0-1.24.09-1.87.12h0l-.29,0c-1.79.1-3.66.16-5.56.2H53l-2,0q-1.46,0-2.85,0h0l-.77,0h-1c-1.64,0-3.25-.11-4.81-.19l-.23,0h-.07l-1.78-.12-.68,0c-1.37-.1-2.71-.22-4-.35l-.47,0h0l-1.78-.2-1-.13c-1.17-.14-2.31-.3-3.4-.48s-2-.33-3-.5C15.3,83.9,8.83,81.25,6.69,78.85a4.24,4.24,0,0,1-.39-.5l0,0a2.09,2.09,0,0,1-.39-1.15,1.32,1.32,0,0,1,0-.34.09.09,0,0,1,0,0A1.61,1.61,0,0,1,6,76.47v0a2.15,2.15,0,0,1,.29-.53c.74-1.12-.31-2.48-1.85-2.61H4.4a4.27,4.27,0,0,0-2,.61s0,0,0,0A4.43,4.43,0,0,0,.23,78.35c.09.6.19,1.25.31,1.93a12.49,12.49,0,0,0,4.6,4.33c.56.34,1.16.67,1.8,1A62.21,62.21,0,0,0,23,90.49h0l1.56.28,2.05.33c1.3.2,2.64.38,4,.55,2.73.33,5.55.6,8.42.78,1.67.12,3.35.21,5,.27h0q3.43.13,6.89.14l2.4,0,2.79-.06c3.2-.09,6.39-.27,9.49-.53,1.38-.11,2.75-.25,4.09-.4h0C80,90.7,89.06,88.62,95,85.63c.64-.33,1.24-.67,1.81-1a12.82,12.82,0,0,0,4.51-4.15A6.65,6.65,0,0,0,100.59,77Z" transform="translate(-0.18 -21.16)"/><path class="cls-12" d="M229.56,32.5,213.77,96.86h-22l-8.85-39.43-9,39.43h-22L136.27,32.5h19.35l7.48,44,10.13-44h19.63l9.86,43.63,7.48-43.63Z" transform="translate(-0.18 -21.16)"/><path class="cls-13" d="M237.09,57.33a21.87,21.87,0,0,1,7.85-9.13A20.09,20.09,0,0,1,256,45a18.74,18.74,0,0,1,9.13,2.1,15.21,15.21,0,0,1,5.93,5.66V45.65H289V96.86H271.09V89.74a15.11,15.11,0,0,1-6,5.66,18.78,18.78,0,0,1-9.08,2.1,20.08,20.08,0,0,1-11.09-3.19,21.8,21.8,0,0,1-7.85-9.17,31.77,31.77,0,0,1-2.87-13.92A31.48,31.48,0,0,1,237.09,57.33Zm31.31,6.12a9.26,9.26,0,0,0-13.28,0q-2.65,2.79-2.65,7.8a11.07,11.07,0,0,0,2.65,7.8,8.67,8.67,0,0,0,6.66,2.88,8.78,8.78,0,0,0,6.62-2.83q2.69-2.83,2.69-7.85A10.8,10.8,0,0,0,268.39,63.45Z" transform="translate(-0.18 -21.16)"/><path class="cls-14" d="M324.39,47.75a17.71,17.71,0,0,1,9.22-2.56V64.27h-5q-5.84,0-8.67,2.28t-2.83,7.94V96.86H299.2V45.65h17.89v9A23.29,23.29,0,0,1,324.39,47.75Z" transform="translate(-0.18 -21.16)"/><path class="cls-15" d="M422.11,51q5.52,5.84,5.52,16V96.86H409.74V69.38A8.64,8.64,0,0,0,407.46,63,9.58,9.58,0,0,0,395,63a8.64,8.64,0,0,0-2.28,6.39V96.86H374.87V69.38A8.74,8.74,0,0,0,372.63,63a8.24,8.24,0,0,0-6.16-2.28,8.51,8.51,0,0,0-6.3,2.28,8.64,8.64,0,0,0-2.28,6.39V96.86H340V45.65h17.89V52.4a17.26,17.26,0,0,1,6.16-5.25,18.69,18.69,0,0,1,8.72-2,20.38,20.38,0,0,1,10.09,2.46,18,18,0,0,1,7,6.94,21.18,21.18,0,0,1,7.21-6.8,19.25,19.25,0,0,1,9.86-2.6Q416.58,45.19,422.11,51Z" transform="translate(-0.18 -21.16)"/><path class="cls-16" d="M438.81,38.3a8.43,8.43,0,0,1-2.87-6.53,8.67,8.67,0,0,1,2.88-6.66,10.81,10.81,0,0,1,7.62-2.65A10.68,10.68,0,0,1,454,25.11a8.67,8.67,0,0,1,2.88,6.66A8.43,8.43,0,0,1,454,38.3a10.79,10.79,0,0,1-7.53,2.6A10.93,10.93,0,0,1,438.81,38.3Zm16.48,7.35V96.86H437.39V45.65Z" transform="translate(-0.18 -21.16)"/><path class="cls-17" d="M514.16,74.86H480.29q.27,4.2,2.33,6.25a7.11,7.11,0,0,0,5.25,2.05,6.58,6.58,0,0,0,6.39-4h19.08a22.34,22.34,0,0,1-4.61,9.45,23.76,23.76,0,0,1-8.63,6.53,27.38,27.38,0,0,1-11.5,2.37,27.76,27.76,0,0,1-13.46-3.19,22.94,22.94,0,0,1-9.22-9.13,28,28,0,0,1-3.33-14,28.12,28.12,0,0,1,3.29-13.92A22.72,22.72,0,0,1,475,48.2a30.45,30.45,0,0,1,27-.09,22.37,22.37,0,0,1,9.13,8.9,27.22,27.22,0,0,1,3.29,13.65A32.4,32.4,0,0,1,514.16,74.86Zm-18-8.67A6.42,6.42,0,0,0,494,61a8.14,8.14,0,0,0-5.48-1.87,8,8,0,0,0-5.38,1.78,8.65,8.65,0,0,0-2.74,5.25Z" transform="translate(-0.18 -21.16)"/><path class="cls-18" d="M553.77,96.86l-14.15-21v21H521.74V29.31h17.89V65.73l14.15-20.08h21.45L555.05,71.39l20.54,25.47Z" transform="translate(-0.18 -21.16)"/><path class="cls-19" d="M633.19,45.65V96.86h-18v-7.3a16.86,16.86,0,0,1-6.3,5.61,19.26,19.26,0,0,1-9.22,2.14q-8.95,0-14.1-5.89t-5.16-16V45.65h17.8V73.12A9.74,9.74,0,0,0,600.55,80a8.87,8.87,0,0,0,12.37,0,9.87,9.87,0,0,0,2.28-6.89V45.65Z" transform="translate(-0.18 -21.16)"/></svg>