<svg width="25" height="25" viewBox="0 0 25 25" fill="none" xmlns="http://www.w3.org/2000/svg">
<path d="M8.33333 19.7917H16.6667M13.9661 2.16666C17.7344 3.83906 20.5906 6.03645 22.0672 7.30572C22.8135 7.94739 23.2297 8.87083 23.2807 9.85364C23.3521 11.2031 23.4375 13.3151 23.4375 15.625C23.4375 17.4021 23.387 19.1177 23.3312 20.4651C23.3026 21.2153 22.9903 21.9266 22.4574 22.4554C21.9245 22.9843 21.2108 23.2911 20.4604 23.3141C18.6583 23.3766 15.9839 23.4375 12.5 23.4375C9.01615 23.4375 6.34219 23.376 4.53958 23.3146C3.7892 23.2916 3.07549 22.9848 2.54262 22.456C2.00974 21.9271 1.69743 21.2158 1.66875 20.4656C1.60073 18.853 1.5653 17.2391 1.5625 15.625C1.5625 13.3151 1.64844 11.2031 1.71875 9.85364C1.77083 8.87083 2.18646 7.94739 2.93281 7.30572C4.40937 6.03593 7.26615 3.83906 11.0339 2.16666C11.4955 1.9618 11.9949 1.85596 12.5 1.85596C13.0051 1.85596 13.5045 1.9618 13.9661 2.16666Z" stroke="white" stroke-width="1.5" stroke-linecap="round" stroke-linejoin="round"/>
</svg>
