<svg width="25" height="25" viewBox="0 0 25 25" fill="none" xmlns="http://www.w3.org/2000/svg">
<path d="M20.7271 16.6667H8.2271C7.25835 16.6667 6.77398 16.6667 6.37606 16.773C5.84618 16.9151 5.36304 17.1942 4.97521 17.5822C4.58738 17.9702 4.30853 18.4535 4.16669 18.9834" stroke="white" stroke-width="1.5"/>
<path d="M8.33335 7.29171H16.6667M8.33335 10.9375H13.5417M10.4167 22.9167C7.47085 22.9167 5.9969 22.9167 5.08231 22.0011C4.16669 21.0865 4.16669 19.6125 4.16669 16.6667V8.33337C4.16669 5.38754 4.16669 3.91358 5.08231 2.999C5.9969 2.08337 7.47085 2.08337 10.4167 2.08337H14.5834C17.5292 2.08337 19.0031 2.08337 19.9177 2.999C20.8334 3.91358 20.8334 5.38754 20.8334 8.33337M14.5834 22.9167C17.5292 22.9167 19.0031 22.9167 19.9177 22.0011C20.8334 21.0865 20.8334 19.6125 20.8334 16.6667V12.5" stroke="white" stroke-width="1.5" stroke-linecap="round"/>
</svg>
