<svg width="23" height="23" viewBox="0 0 23 23" fill="none" xmlns="http://www.w3.org/2000/svg">
<path d="M0.895714 10.3449C1.002 11.7969 1.79571 12.966 2.78143 13.1271C3.51686 13.2471 4.26943 13.35 5.03571 13.35C5.80371 13.35 6.55629 13.2471 7.29 13.1271C8.27743 12.966 9.07286 11.7969 9.17571 10.3449C9.26492 9.24875 9.31352 8.14971 9.32143 7.05C9.32143 5.92886 9.25457 4.82657 9.17743 3.75514C9.07114 2.30314 8.27743 1.13571 7.28829 0.972857C6.54429 0.836533 5.79029 0.761993 5.034 0.75C4.26771 0.75 3.51514 0.852857 2.78143 0.972857C1.794 1.13571 0.998571 2.30314 0.895714 3.75514C0.806512 4.85125 0.757907 5.95029 0.75 7.05C0.75 8.17286 0.818571 9.27343 0.895714 10.3449ZM21.8769 12.4637C21.7723 11.0134 20.9769 9.846 19.986 9.68486C19.2409 9.54835 18.4857 9.4738 17.7283 9.462C16.9586 9.462 16.2043 9.56486 15.4689 9.68486C14.4797 9.846 13.6843 11.0134 13.578 12.4637C13.4894 13.5593 13.4414 14.6577 13.434 15.7569C13.434 16.878 13.5009 17.9786 13.578 19.05C13.6843 20.502 14.4797 21.6694 15.4689 21.8306C16.206 21.9506 16.9603 22.0534 17.7283 22.0534C18.4963 22.0534 19.2523 21.9506 19.986 21.8306C20.9769 21.6694 21.7723 20.502 21.8786 19.05C21.9557 17.9786 22.0226 16.878 22.0226 15.7586C22.0226 14.6357 21.954 13.5351 21.8769 12.4637ZM0.895714 20.9683C1.002 21.4929 1.79571 21.9146 2.78143 21.9729C3.53189 22.0222 4.28365 22.0491 5.03571 22.0534C5.78778 22.0491 6.53954 22.0222 7.29 21.9729C8.27743 21.9146 9.07286 21.4929 9.17571 20.9683C9.25457 20.5809 9.32143 20.1814 9.32143 19.7769C9.31225 19.376 9.26402 18.9769 9.17743 18.5854C9.07114 18.0609 8.27743 17.6391 7.29 17.5809C6.53954 17.5315 5.78778 17.5047 5.03571 17.5003C4.28422 17.5047 3.53303 17.5316 2.78314 17.5809C1.79571 17.6391 1.00029 18.0609 0.895714 18.5854C0.808018 18.9768 0.759776 19.3759 0.751714 19.7769C0.751714 20.1831 0.816857 20.5809 0.895714 20.9683ZM21.8769 1.83514C21.7723 1.31057 20.9751 0.888857 19.986 0.830571C19.2344 0.781175 18.4815 0.754306 17.7283 0.75C16.9586 0.75 16.2043 0.787714 15.4689 0.830571C14.4797 0.888857 13.6843 1.31057 13.578 1.83514C13.4903 2.22648 13.4421 2.62561 13.434 3.02657C13.434 3.43114 13.5009 3.83057 13.578 4.218C13.6843 4.74257 14.4797 5.16429 15.4689 5.22257C16.206 5.26543 16.9603 5.30314 17.7283 5.30314C18.4963 5.30314 19.2523 5.26543 19.986 5.22257C20.9769 5.16429 21.7723 4.74257 21.8786 4.21629C21.9651 3.82532 22.0133 3.42688 22.0226 3.02657C22.0134 2.62569 21.9635 2.22666 21.8769 1.83514Z" stroke="white" stroke-width="1.5" stroke-linecap="round" stroke-linejoin="round"/>
</svg>
